<?xml version="1.0" encoding="UTF-8"?>
<svg width="64px" height="64px" viewBox="0 0 64 64" version="1.1" xmlns="http://www.w3.org/2000/svg" xmlns:xlink="http://www.w3.org/1999/xlink">
    <title>ganttlogo copy</title>
    <g id="ganttlogo-copy" stroke="none" stroke-width="1" fill="none" fill-rule="evenodd">
        <path d="M30.5,4 C46.2401154,4 59,16.7598846 59,32.5 C59,38.2686667 57.2861144,43.6370341 54.3397654,48.1236798 L62,61 L30.6182452,60.9997599 C30.578849,60.9999199 30.5394338,61 30.5,61 L30.382,60.999 L30.6182452,60.9997599 C31.557225,60.9959459 32.4854913,60.9467234 33.4009619,60.8541747 C34.8097629,60.7163036 36.0238052,60.5018227 37.0480211,60.2460904 L37.2760457,60.1895784 C37.8113998,60.0590221 38.3408293,59.9133445 38.8638562,59.7530238 C38.8767348,59.7478751 38.8903805,59.7437431 38.9040493,59.7395932 C38.9921168,59.7135302 39.0792964,59.6861992 39.1662945,59.6584617 C39.8734116,59.436453 40.6377091,59.1653752 41.4382858,58.8251877 L41.4918419,58.8030875 C42.0128317,58.5851149 42.5259716,58.3521147 43.0307197,58.1046289 L43.2532043,58.0013046 L43.7198908,57.7550057 C43.8242825,57.7002488 43.9282929,57.6448636 44.031917,57.5888551 L44.2215576,57.4877625 L44.3317305,57.4244704 C48.3729473,55.1770145 51.8104779,51.975232 54.3397654,48.1236798 L45.5,33.2674345 L41.913,39.348 L38,46 L37.99,46 L44.9586459,57.0629516 L44.3317305,57.4244704 C43.9046817,57.6619665 43.4708917,57.8888058 43.0307197,58.1046289 C42.2356935,58.4715814 41.7048233,58.7119285 41.4382858,58.8251877 L41.4918419,58.8030875 C40.6492489,59.1556132 39.7861235,59.4688323 38.9047581,59.7404525 L39.1660892,59.658665 C39.0638866,59.6907729 38.9628736,59.7218606 38.8631124,59.7519891 C38.1958439,59.9535088 37.5845859,60.1121177 37.0480211,60.2460904 L37.2760457,60.1895784 C36.0151342,60.4970759 34.7213572,60.7206904 33.4009619,60.8541747 C32.9563354,60.8968867 32.4920169,60.9325282 32.0081482,60.9593277 C31.6193914,60.9808593 31.0723136,60.9940621 30.3669148,60.9989359 L30.311,60.998 L30.382,60.999 L30.23,60.999 L30.311,60.998 L30.0287004,60.9961818 C14.5059629,60.7445043 2,48.0827142 2,32.5 C2,16.7598846 14.7598846,4 30.5,4 Z M38,20.5 L23,20.5 L15.5,33.25 L23,46 L37.99,46 L41.913,39.348 L45.5,33.25 L38,20.5 Z" id="Combined-Shape" fill="#0A84FF"></path>
    </g>
</svg>